<svg width="33" height="32" viewBox="0 0 33 32" fill="none" xmlns="http://www.w3.org/2000/svg">
<g clip-path="url(#clip0_1_258)">
<path d="M16.5 20.0002C18.7782 20.0002 20.625 18.2094 20.625 16.0002C20.625 13.7911 18.7782 12.0002 16.5 12.0002C14.2218 12.0002 12.375 13.7911 12.375 16.0002C12.375 18.2094 14.2218 20.0002 16.5 20.0002Z" stroke="white" stroke-width="1.59942" stroke-linecap="round" stroke-linejoin="round"/>
<path d="M26.6757 20C26.4927 20.4022 26.4381 20.8483 26.519 21.2808C26.5999 21.7134 26.8125 22.1125 27.1295 22.4267L27.212 22.5067C27.4677 22.7544 27.6705 23.0485 27.8089 23.3722C27.9473 23.6959 28.0185 24.0429 28.0185 24.3934C28.0185 24.7438 27.9473 25.0908 27.8089 25.4145C27.6705 25.7383 27.4677 26.0324 27.212 26.28C26.9566 26.528 26.6533 26.7247 26.3194 26.8589C25.9856 26.9931 25.6278 27.0621 25.2664 27.0621C24.905 27.0621 24.5471 26.9931 24.2133 26.8589C23.8794 26.7247 23.5761 26.528 23.3207 26.28L23.2382 26.2C22.9142 25.8927 22.5026 25.6865 22.0565 25.608C21.6105 25.5296 21.1505 25.5826 20.7357 25.76C20.329 25.9291 19.9822 26.2097 19.7379 26.5674C19.4936 26.9251 19.3625 27.3443 19.3607 27.7734V28C19.3607 28.7073 19.071 29.3856 18.5553 29.8857C18.0396 30.3858 17.3401 30.6667 16.6107 30.6667C15.8814 30.6667 15.1819 30.3858 14.6662 29.8857C14.1505 29.3856 13.8607 28.7073 13.8607 28V27.88C13.8501 27.4387 13.7028 27.0107 13.4379 26.6516C13.1731 26.2926 12.803 26.0191 12.3757 25.8667C11.961 25.6892 11.501 25.6363 11.0549 25.7147C10.6089 25.7931 10.1973 25.9993 9.87323 26.3067L9.79073 26.3867C9.53533 26.6346 9.23204 26.8313 8.89819 26.9655C8.56435 27.0997 8.2065 27.1688 7.84511 27.1688C7.48371 27.1688 7.12587 27.0997 6.79202 26.9655C6.45818 26.8313 6.15488 26.6346 5.89948 26.3867C5.6438 26.139 5.44096 25.8449 5.30257 25.5212C5.16418 25.1975 5.09294 24.8505 5.09294 24.5C5.09294 24.1496 5.16418 23.8026 5.30257 23.4789C5.44096 23.1551 5.6438 22.861 5.89948 22.6134L5.98198 22.5334C6.29897 22.2191 6.51161 21.82 6.59249 21.3875C6.67336 20.955 6.61877 20.5089 6.43573 20.1067C6.26143 19.7123 5.97202 19.376 5.60312 19.1391C5.23422 18.9022 4.80194 18.7751 4.35948 18.7734H4.12573C3.39639 18.7734 2.69691 18.4924 2.18119 17.9923C1.66546 17.4922 1.37573 16.814 1.37573 16.1067C1.37573 15.3995 1.66546 14.7212 2.18119 14.2211C2.69691 13.721 3.39639 13.44 4.12573 13.44H4.24948C4.7046 13.4297 5.14599 13.2869 5.51627 13.0301C5.88655 12.7732 6.16859 12.4144 6.32573 12C6.50877 11.5979 6.56336 11.1518 6.48249 10.7193C6.40161 10.2867 6.18897 9.88761 5.87198 9.57337L5.78948 9.49337C5.5338 9.24571 5.33096 8.95161 5.19257 8.62788C5.05418 8.30415 4.98294 7.95715 4.98294 7.60671C4.98294 7.25627 5.05418 6.90926 5.19257 6.58553C5.33096 6.2618 5.5338 5.9677 5.78948 5.72004C6.04488 5.4721 6.34818 5.27541 6.68202 5.14121C7.01587 5.00702 7.37371 4.93794 7.73511 4.93794C8.0965 4.93794 8.45435 5.00702 8.78819 5.14121C9.12204 5.27541 9.42533 5.4721 9.68073 5.72004L9.76323 5.80004C10.0873 6.10742 10.4989 6.31362 10.9449 6.39205C11.391 6.47047 11.851 6.41753 12.2657 6.24004H12.3757C12.7824 6.07102 13.1293 5.79038 13.3736 5.43266C13.6179 5.07494 13.749 4.65576 13.7507 4.22671V4.00004C13.7507 3.2928 14.0405 2.61452 14.5562 2.11442C15.0719 1.61433 15.7714 1.33337 16.5007 1.33337C17.2301 1.33337 17.9296 1.61433 18.4453 2.11442C18.961 2.61452 19.2507 3.2928 19.2507 4.00004V4.12004C19.2525 4.54909 19.3836 4.96827 19.6279 5.32599C19.8722 5.68371 20.219 5.96436 20.6257 6.13337C21.0405 6.31086 21.5005 6.3638 21.9465 6.28538C22.3926 6.20695 22.8042 6.00076 23.1282 5.69337L23.2107 5.61337C23.4661 5.36544 23.7694 5.16875 24.1033 5.03455C24.4371 4.90035 24.795 4.83128 25.1564 4.83128C25.5178 4.83128 25.8756 4.90035 26.2094 5.03455C26.5433 5.16875 26.8466 5.36544 27.102 5.61337C27.3577 5.86104 27.5605 6.15514 27.6989 6.47887C27.8373 6.80259 27.9085 7.1496 27.9085 7.50004C27.9085 7.85048 27.8373 8.19749 27.6989 8.52121C27.5605 8.84494 27.3577 9.13905 27.102 9.38671L27.0195 9.46671C26.7025 9.78095 26.4899 10.1801 26.409 10.6126C26.3281 11.0451 26.3827 11.4912 26.5657 11.8934V12C26.74 12.3944 27.0294 12.7307 27.3983 12.9676C27.7672 13.2045 28.1995 13.3317 28.642 13.3334H28.8757C29.6051 13.3334 30.3046 13.6143 30.8203 14.1144C31.336 14.6145 31.6257 15.2928 31.6257 16C31.6257 16.7073 31.336 17.3856 30.8203 17.8857C30.3046 18.3858 29.6051 18.6667 28.8757 18.6667H28.752C28.3095 18.6684 27.8772 18.7955 27.5083 19.0324C27.1394 19.2694 26.85 19.6057 26.6757 20V20Z" stroke="white" stroke-width="1.59942" stroke-linecap="round" stroke-linejoin="round"/>
</g>
<defs>
<clipPath id="clip0_1_258">
<rect width="33" height="32" fill="white"/>
</clipPath>
</defs>
</svg>
